mtllib materials.mtl
v 0.01226968 0.4566667 0.06555606
v 0.1972696 0.4070961 0.06555618
v 0.1972696 0.4070961 0.07555614
v 0.01226968 0.4566667 0.075556
v 0.332699 0.2716665 0.06555624
v 0.332699 0.2716665 0.07555617
v 0.3822696 0.08666658 0.06555618
v 0.3822695 0.08666658 0.07555614
v 0.3326989 -0.09833372 0.065556
v 0.3326988 -0.0983336 0.07555597
v 0.1872694 -0.2237636 0.0655558
v 0.002269328 -0.2733339 0.07555576
v 0.1772694 -0.2237631 0.07555585
v -0.1727306 -0.2337632 0.06555589
v -0.1727307 -0.233763 0.07555543
v -0.3081599 -0.09833324 0.06555556
v -0.30816 -0.09833336 0.0755554
v -0.3577306 0.08666682 0.06555553
v -0.3577304 0.08666682 0.07555543
v -0.3081599 0.2716668 0.06555565
v -0.3081599 0.2716668 0.07555561
v -0.1727303 0.4070964 0.06555568
v -0.1727303 0.4070961 0.07555573
v 0.3622699 -0.1033334 0.05555561
v 0.3622699 -0.1033334 0.0955556
v 0.3622699 -0.02333343 0.0955556
v 0.3622699 -0.02333343 0.05555561
v 0.1622699 -0.1033334 0.05555561
v 0.1622699 -0.02333343 0.05555561
v 0.1622699 -0.02333343 0.0955556
v 0.1622699 -0.06333339 0.0955556
v 0.1622699 -0.1033334 0.0955556
v 0.2622699 -0.02333343 0.0955556
v -0.15773 -0.1033334 0.05555562
v -0.15773 -0.1033334 0.0955556
v -0.15773 -0.02333343 0.0955556
v -0.15773 -0.02333343 0.05555562
v -0.34773 -0.1033334 0.05555562
v -0.34773 -0.02333343 0.05555562
v -0.34773 -0.02333343 0.0955556
v -0.34773 -0.1033334 0.0955556
v 0.2422699 -0.02333343 0.05555561
v 0.2422699 -0.02333343 0.09555562
v 0.2422699 0.1166666 0.09555562
v 0.2422699 0.2766666 0.09555562
v 0.2422699 0.2766666 0.05555561
v 0.2422699 0.1166666 0.05555561
v 0.1622699 -0.02333343 0.05555561
v 0.1622699 0.1166666 0.05555561
v 0.1622699 0.1866667 0.05555561
v 0.1622699 0.1866667 0.09555562
v 0.1622699 0.1166666 0.09555562
v 0.1622699 -0.02333343 0.09555562
v -0.15773 -0.02333343 0.05555561
v -0.15773 -0.02333343 0.0955556
v -0.15773 0.1166666 0.0955556
v -0.15773 0.1866667 0.0955556
v -0.15773 0.1866667 0.05555561
v -0.15773 0.1166666 0.05555568
v -0.2377301 -0.02333343 0.05555561
v -0.2377301 0.1166666 0.05555561
v -0.2377301 0.2766666 0.05555561
v -0.2377301 0.2766666 0.0955556
v -0.2377301 0.1166666 0.0955556
v -0.2377301 -0.02333343 0.0955556
v 0.04226995 -0.02333343 0.05555562
v 0.04226995 -0.02333343 0.08555569
v -0.15773 0.1866667 0.05555561
v -0.15773 0.1166666 0.05555561
v -0.15773 0.1166666 0.0955556
v -0.0377301 -0.02333343 0.08555567
v -0.0377301 -0.02333343 0.05555561
v -0.15773 0.1866667 0.0955556
v -0.03773022 -0.02333331 0.08555546
v -0.0377301 -0.02333331 0.05555541
v 0.1622699 0.1866667 0.09555562
v 0.1622699 0.1166666 0.09555562
v 0.1622698 0.1166668 0.05555559
v 0.04226989 -0.02333331 0.05555546
v 0.04226989 -0.02333331 0.08555552
v 0.1622698 0.1866667 0.05555559
v 0.002269924 -0.06333339 0.08555567
v 0.04226995 -0.02333343 0.08555569
v 0.002270043 -0.06333339 0.05555562
v -0.0377301 -0.02333343 0.08555567
v -0.0377301 -0.02333343 0.05555561
v 0.04226995 -0.02333343 0.05555562
v 0.001840651 -0.06333303 0.05555527
v 0.1622699 0.1166666 0.09555571
v 0.002269924 -0.06333339 0.08555575
v 0.3307688 -0.1023322 0.05978937
v 0.1622699 -0.02333343 0.09555568
v 0.1570551 -0.02083302 0.0755557
v 0.187036 -0.23419 0.05968527
v 0.1872694 -0.2337633 0.08555602
v 0.3333058 -0.09837639 0.08350785
v 0.001840472 -0.2833335 0.04555539
v -0.1731596 -0.233763 0.05555538
v -0.1731596 -0.233763 0.08555566
v -0.3100213 -0.09876752 0.06327744
v -0.15773 0.1166666 0.05555568
v -0.15773 0.1166666 0.09555565
v -0.15773 -0.02333343 0.05555568
v 0.1622699 0.1166666 0.05555568
v 0.1618406 -0.02333307 0.0555553
v 0.1622699 -0.1033334 0.09555568
v 0.001839936 -0.2833337 0.08555551
v -0.308589 -0.09833324 0.08555563
v -0.2209816 -0.08958316 0.08555554
v -0.15773 -0.02333343 0.08555575
v -0.1540905 -0.001050234 0.05941654
v -0.15773 -0.1033334 0.08555575
vn 0.2588193 0.9659258 1.121583E-06
vn 0.7071071 0.7071066 3.571297E-06
vn 0.965926 0.2588184 4.746125E-06
vn 0.965926 -0.2588184 4.808193E-06
vn 0.6531168 -0.7572573 1.298431E-05
vn 0.2629453 -0.9282757 0.2629903
vn -0.2205515 -0.9753754 3.319189E-05
vn -0.7071084 -0.7071053 6.056084E-06
vn -0.9659259 -0.2588189 1.706216E-06
vn -0.9659257 0.2588196 4.636154E-06
vn -0.7071069 0.7071068 7.22023E-06
vn -0.2588185 0.965926 1.202546E-05
vn 8.303778E-07 2.47546E-07 -1
vn -9.60387E-07 -4.529585E-07 1
vn 0.006098704 -0.2195671 -0.9755784
vn 0.5318172 -0.6590186 0.5318506
vn 1 -2.072193E-08 0
vn -1 -1.693842E-08 0
vn -1.862645E-07 -1 -2.887107E-08
vn -1.862645E-07 1 2.617018E-07
vn -2.348097E-08 0 -1
vn -2.272429E-08 1.330462E-08 1
vn -1.085E-08 0 1
vn 1 -2.572793E-08 0
vn -1 4.051279E-08 0
vn 0 -1 1.009719E-08
vn 0 1 -1.009719E-08
vn -1.715589E-09 0 -1
vn 1.151829E-09 0 1
vn 1 1.229346E-08 -4.346169E-08
vn -1 2.013429E-08 -6.208811E-08
vn 0 -1 -3.175811E-07
vn -0.7474091 0.6643642 -8.538665E-08
vn -5.022492E-09 0 -1
vn 1.164153E-09 -5.321844E-08 1
vn 1.635635E-08 0 -1
vn -3.738588E-08 0 -1
vn -0.7474091 0.6643642 8.538665E-08
vn -1.804445E-08 0 1
vn -4.124437E-08 0 1
vn 1 -9.885315E-08 -6.608472E-15
vn -1 -7.050112E-08 4.625929E-15
vn 0 -1 -6.146729E-08
vn 0.7474088 0.6643644 5.383244E-08
vn 4.592417E-07 2.927014E-07 -1
vn -1.895906E-09 2.660922E-08 1
vn 9.405183E-07 0 -1
vn -1.226283E-06 -1.064366E-06 -1
vn 0.7474088 0.6643644 -5.383244E-08
vn 5.355155E-09 0 1
vn -1.224033E-08 0 1
vn 0.7241382 0.6896549 1.073042E-07
vn -0.7592568 -0.6507912 -3.860055E-07
vn 6.749033E-14 -1 -1.646726E-07
vn -1 2.767308E-08 2.283802E-08
vn 6.002395E-08 -2.28369E-08 -1
vn 0.04993721 2.272925E-08 0.9987524
vn -0.7592567 -0.6507912 3.759097E-08
vn -1.712392E-07 -0.07124672 0.9974588
vn 1.712764E-07 1.70079E-07 -1
vn 0.7241382 0.6896549 3.325335E-07
vn -1 2.767294E-08 2.283799E-08
vn -7.161508E-14 -1 2.413904E-07
vn -0.7241378 0.6896553 -2.80462E-08
vn 0.759257 -0.6507909 -5.336605E-06
vn 3.496909E-07 -1 1.646727E-07
vn 1 1.149083E-08 -4.440022E-06
vn -0.0499384 -2.652998E-09 0.9987524
vn 9.669193E-07 -8.359945E-08 -1
vn 0.7592561 -0.6507919 5.954147E-07
vn 5.48609E-07 4.851725E-07 -1
vn -7.773656E-07 -0.0712471 0.9974587
vn -0.7241384 0.6896547 5.448125E-06
vn 1 2.476451E-07 -4.719413E-06
vn -3.953661E-07 -1 -1.793594E-06
vn 0.7071063 -0.7071074 2.336393E-06
vn 9.825544E-15 1 -2.331272E-07
vn -1.885491E-07 -1.858198E-07 1
vn 1.263077E-07 -2.099928E-07 -1
vn -0.7071053 -0.7071083 2.003691E-07
vn -0.7071063 -0.7071073 -2.046915E-06
vn 0.7071072 -0.7071064 -3.028092E-07
vn -0.7476618 0.6639935 0.01070742
vn 0.4249128 0.9052311 0.002383253
vn 0.6798949 -0.7332854 0.005959416
vn 0.2554878 -0.9667161 0.01363746
vn -0.2725376 -0.9621451 -5.286912E-08
vn -0.7022361 -0.7119442 1.877353E-07
vn 0.7474094 0.6643639 -1.195712E-07
vn -0.01699759 -0.06779819 -0.9975542
vn 0.9999953 -0.003066973 -1.026766E-07
vn 0.9679798 -0.07170387 0.2405696
vn -0.06237776 -1.827141E-07 0.9980527
vn -0.08509722 -0.09237028 0.9920818
vn -2.4719E-06 -1.132437E-06 1
vn 5.349388E-07 -1.233897E-06 1
vn 9.074492E-07 8.750499E-07 1
vn -0.01780873 -0.07123505 0.9973006
vn -0.7465237 0.6653589 3.253632E-08
vn 0.7482511 0.6633294 -0.01069733
vn -0.4341653 0.7144907 0.5486379
vn -0.02800928 0.02875954 -0.9991938
vn -0.04417869 0.04536263 -0.9979932
vn 0.06403739 0.04531356 -0.9969183
vn 0.0114805 -0.01172506 -0.9998654
vn 0.008725848 -0.03490294 -0.9993526
vn -5.290889E-07 2.688618E-06 -1
vn 0.0702662 -1.832276E-07 0.9975283
vn 0.3829801 0.9036512 -0.1916789
vn 0.07193192 -0.06253086 0.9954475
vn -0.06237781 -2.751334E-07 0.9980526
vn 0.2582581 -0.966076 4.764587E-07
vn -0.2725389 -0.9621447 -6.499965E-06
vn -2.638559E-06 -4.11655E-10 -1
vn -0.1442049 0.191756 -0.9707907
vn 2.283791E-08 3.725524E-08 1
vn -3.176719E-06 -1.080039E-07 1
vn 1.452458E-06 -4.270019E-06 1
vn -0.7058697 -0.7058684 0.05914226
vn -0.445144 0.8953895 0.01116565
vn 2.107838E-07 -8.528763E-07 1
vn 0.4238298 0.9056651 -0.01179972
vn 0.9676476 6.209439E-08 -0.2523057
vn -0.7276523 5.722169E-08 0.6859462
vn -0.9995224 -0.03090332 2.493216E-08
vn -0.9914541 0.009294496 -0.130125
vn -3.251121E-06 -1.802672E-07 1
vn 0.6751271 -0.7359687 0.05053277
vt 0.03462076 -0.111651
vt 0.02710042 -0.09403656
vt 0.02618074 -0.09442921
vt 0.03370108 -0.1120436
vt 0.1300244 -0.1456009
vt 0.1164132 -0.1321266
vt 0.1157097 -0.1328373
vt 0.1293209 -0.1463116
vt 0.1959039 0.1087811
vt 0.1796815 0.09859993
vt 0.180213 0.09775293
vt 0.1964355 0.107934
vt 0.09553 0.1707495
vt 0.0872214 0.1534929
vt 0.08812241 0.1530591
vt 0.096431 0.1703157
vt 0.04448907 0.0966602
vt 0.03847849 0.07842023
vt 0.04543883 0.09634723
vt 0.05987304 -0.003511874
vt 0.05599093 -0.02229356
vt 0.06062986 -0.004706548
vt -0.02321159 -0.09031156
vt -0.03098203 -0.1065143
vt -0.03005774 -0.1068958
vt -0.1164111 -0.1321287
vt -0.1300222 -0.1456031
vt -0.1293187 -0.1463138
vt -0.1157076 -0.1328393
vt -0.1796807 0.09860129
vt -0.1959031 0.1087825
vt -0.1964346 0.1079355
vt -0.1802123 0.09775429
vt -0.08721901 0.1534941
vt -0.09552743 0.1707508
vt -0.09642844 0.170317
vt -0.08812002 0.1530603
vt -0.0426133 0.08895643
vt -0.04872512 0.1071077
vt -0.04967283 0.1067886
vt -0.04356102 0.08863732
vt -0.008576695 -0.01239627
vt -0.014514 0.005812802
vt -0.01546473 0.005502806
vt -0.009527435 -0.01270628
vt -0.2466767 0.04116287
vt -0.2406201 0.02299308
vt -0.2262901 0.01028589
vt -0.2075264 0.006446169
vt -0.1893565 0.01250272
vt -0.1741512 0.0451493
vt -0.1788662 0.0637663
vt -0.1931963 0.0764735
vt -0.21196 0.08031323
vt -0.2301298 0.07425666
vt -0.242837 0.05992662
vt 0.242837 0.05992662
vt 0.2301298 0.07425665
vt 0.21196 0.08031322
vt 0.1931963 0.0764735
vt 0.1788662 0.0637663
vt 0.1745985 0.04425489
vt 0.177991 0.02638554
vt 0.1893566 0.01250273
vt 0.2075263 0.006446156
vt 0.2262901 0.0102859
vt 0.2406201 0.02299307
vt 0.2466767 0.04116286
vt -0.1822889 0.01922571
vt -0.1701075 0.0324363
vt -0.1653796 0.05102313
vt 0.118648 0.04072315
vt 0.1194621 0.03956679
vt 0.1267714 0.05815399
vt 0.1182238 0.1465883
vt 0.1214788 0.1442633
vt 0.1261287 0.1507732
vt 0.1228737 0.1530981
vt -0.1182239 0.1465883
vt -0.1228738 0.1530981
vt -0.1261287 0.1507732
vt -0.1238037 0.1475182
vt -0.1214788 0.1442633
vt 0.003632416 -0.02253457
vt -0.003094312 -0.04136941
vt 0.0006726552 -0.04271475
vt 0.007399383 -0.02387992
vt -0.003632395 -0.02253449
vt -0.007399362 -0.02387983
vt -0.004035997 -0.03329725
vt -0.0006726325 -0.04271467
vt 0.003094334 -0.04136932
vt -0.1770966 0.06618761
vt -0.184252 0.06976532
vt -0.1931963 0.05187678
vt -0.1860409 0.04829907
vt 0.1770966 0.06618761
vt 0.1860409 0.04829907
vt 0.1896186 0.05008793
vt 0.1887241 0.06082105
vt 0.184252 0.06976532
vt 0.1896186 0.05008793
vt 0.1931963 0.05187678
vt 0.1887241 0.06082105
vt 0.1182238 0.1465883
vt 0.1214788 0.1442633
vt 0.1261287 0.1507732
vt 0.1228737 0.1530981
vt -0.1182238 0.1465883
vt -0.1228737 0.1530981
vt -0.1261287 0.1507732
vt -0.1214788 0.1442633
vt -0.01385706 -0.07150511
vt -0.02024745 -0.08939821
vt -0.01648048 -0.09074356
vt -0.01009009 -0.07285047
vt 0.01385706 -0.07150511
vt 0.01009009 -0.07285047
vt 0.01648048 -0.09074356
vt 0.02024745 -0.08939821
vt -0.2003517 0.0196774
vt -0.2075071 0.02325511
vt -0.2160042 0.006260996
vt -0.2088488 0.00268329
vt 0.2003517 0.0196774
vt 0.2088488 0.00268329
vt 0.2160042 0.006260996
vt 0.2075071 0.02325511
vt 0.1228737 0.1530981
vt 0.1261287 0.1507732
vt 0.134266 0.1621655
vt 0.1435658 0.1751852
vt 0.1403109 0.1775102
vt 0.1310111 0.1644904
vt -0.1228738 0.1530981
vt -0.1310111 0.1644904
vt -0.1350798 0.1701865
vt -0.1383347 0.1678616
vt -0.134266 0.1621654
vt -0.1261287 0.1507732
vt -0.0004036674 -0.03383542
vt -0.003094359 -0.04136936
vt 0.0006726089 -0.0427147
vt 0.003363301 -0.03518077
vt -0.05843811 0.1360438
vt -0.06222051 0.1347425
vt -0.05830303 0.123356
vt -0.1896186 0.05903219
vt -0.2021405 0.06529319
vt -0.2057182 0.05813777
vt -0.1931963 0.05187678
vt 0.1896186 0.05903219
vt 0.1931963 0.05187677
vt 0.2057182 0.05813776
vt 0.2021405 0.06529318
vt -0.2021405 0.06529319
vt -0.2164514 0.0724486
vt -0.2057182 0.05813777
vt -0.2164514 0.0724486
vt -0.2119793 0.06126827
vt -0.2057182 0.05813777
vt -0.05830299 0.123356
vt -0.05452059 0.1246573
vt -0.05843807 0.1360439
vt 0.2057182 0.05813777
vt 0.2164514 0.0724486
vt 0.2021405 0.06529319
vt 0.2057182 0.05813777
vt 0.2119793 0.06126827
vt 0.2164514 0.0724486
vt 0.1228737 0.1530981
vt 0.1261287 0.1507732
vt 0.134266 0.1621654
vt 0.1383347 0.1678616
vt 0.1350797 0.1701865
vt 0.1310111 0.1644904
vt -0.1228738 0.1530981
vt -0.1310111 0.1644904
vt -0.1403109 0.1775101
vt -0.1435659 0.1751852
vt -0.134266 0.1621654
vt -0.1261287 0.1507732
vt -0.01385707 -0.07150511
vt -0.01654777 -0.07903905
vt -0.0127808 -0.08038439
vt -0.01009011 -0.07285045
vt 0.1534251 -0.1442045
vt 0.1627646 -0.1518054
vt 0.1652895 -0.148703
vt -0.2075071 0.02325511
vt -0.2200291 0.0295161
vt -0.2236068 0.02236068
vt -0.2110848 0.01609969
vt 0.2075071 0.02325511
vt 0.2110848 0.01609969
vt 0.2236068 0.02236068
vt 0.2200291 0.0295161
vt -0.2200291 0.02951613
vt -0.2379176 0.02951614
vt -0.2236068 0.02236071
vt -0.2200291 0.02951611
vt -0.2262901 0.03264662
vt -0.2379176 0.02951612
vt 0.1652895 -0.1487031
vt 0.15595 -0.1411022
vt 0.1534251 -0.1442046
vt 0.2236068 0.02236068
vt 0.2379176 0.0295161
vt 0.2200291 0.0295161
vt 0.2379176 0.0295161
vt 0.2262901 0.0326466
vt 0.2200291 0.0295161
vt 0.123588 -0.1282864
vt 0.1215602 -0.1304972
vt 0.1449594 -0.147889
vt -0.1576561 -0.1335125
vt -0.1552373 -0.1366983
vt -0.1411562 -0.1247516
vt -0.007130363 -0.05267026
vt -0.009821058 -0.06020421
vt -0.006995827 -0.06121322
vt -0.1350797 0.1701865
vt -0.134266 0.1621655
vt -0.1310111 0.1644904
vt -0.1985628 0.04114365
vt -0.2262901 0.0326466
vt -0.2200291 0.0295161
vt 0.1991079 0.03927349
vt 0.2205086 0.02748321
vt 0.22679 0.03057265
vt -0.1411562 -0.1247517
vt -0.1429703 -0.1223624
vt -0.157656 -0.1335126
vt 0.1998565 0.03705901
vt 0.2032789 0.02982799
vt 0.2210989 0.02498579
vt -0.2200291 0.0295161
vt -0.2021405 0.03398823
vt -0.1985628 0.04114365
vt 0.1215602 -0.1304971
vt 0.1422557 -0.1508368
vt 0.1449595 -0.147889
vt -0.1350797 0.1701865
vt -0.1383347 0.1678616
vt -0.134266 0.1621655
vt -0.006995742 -0.06121324
vt -0.004305049 -0.05367931
vt -0.00713028 -0.05267029
vt -0.0455884 0.0907102
vt -0.04274771 0.09167484
vt -0.05586011 0.1178486
vt 0.0578625 0.1211435
vt 0.05408307 0.1224535
vt 0.04804454 0.1050312
vt -0.006995757 -0.06121318
vt -0.004305058 -0.05367924
vt -0.007130289 -0.05267023
vt 0.1383336 0.1678625
vt 0.13101 0.1644913
vt 0.1342649 0.1621663
vt 0.2015195 0.03624363
vt 0.2111351 0.06362138
vt 0.2048986 0.06044244
vt -0.2021405 0.03398827
vt -0.2057182 0.0581378
vt -0.2119792 0.06126829
vt 0.04804562 0.1050306
vt 0.05088019 0.1040481
vt 0.05786361 0.1211429
vt -0.2021405 0.03398823
vt -0.1985628 0.04114365
vt -0.2057183 0.05813776
vt 0.2074095 0.05390988
vt 0.1998565 0.03705901
vt 0.2032789 0.02982798
vt -0.04274667 0.09167536
vt -0.05207144 0.1191353
vt -0.05585904 0.1178491
vt 0.1383335 0.1678625
vt 0.1350786 0.1701875
vt 0.13101 0.1644913
vt -0.007130752 -0.05267023
vt -0.009821453 -0.06020416
vt -0.006996228 -0.06121318
vt 0.04395641 0.08667076
vt 0.04576159 0.09203185
vt 0.04111326 0.08762811
vt 0.006995744 -0.06121324
vt 0.009820975 -0.06020423
vt 0.007130282 -0.05267029
vt 0.004305051 -0.05367931
vt 0.2021405 0.03398823
vt 0.1985628 0.04114365
vt 0.196774 0.03577708
vt -0.196774 0.03577711
vt -0.1985628 0.04114366
vt -0.2021405 0.03398824
vt -0.1168853 -0.1311898
vt -0.1209054 -0.1351695
vt -0.1187948 -0.1373015
vt -0.1168862 -0.1311891
vt -0.1187958 -0.1373008
vt -0.1147757 -0.1333211
vt 0.04576117 0.09203225
vt 0.04291801 0.09298959
vt 0.04111284 0.0876285
vt -0.04291172 0.09773549
vt -0.05445679 0.1192781
vt -0.04576158 0.09679718
vt 0.03663801 -0.09464072
vt 0.0420296 -0.112808
vt 0.04407131 -0.1124007
vt 0.0406897 0.08277728
vt 0.04315783 0.08200032
vt 0.04928075 0.1009506
vt 0.0157663 0.003744833
vt 0.008525588 -0.01405105
vt 0.01823836 0.002980496
vt -0.03061363 -0.09598666
vt -0.03691513 -0.113078
vt -0.03416155 -0.1142688
vt -0.1154437 -0.1322712
vt -0.1284182 -0.1464771
vt -0.1133115 -0.1343816
vt 0.1518924 -0.1377995
vt 0.1313197 -0.1249245
vt 0.1493675 -0.140902
vt -0.1953231 0.03799947
vt -0.2062295 0.02568368
vt -0.2065367 0.008673941
vt 0.130464 0.1647672
vt 0.1223596 0.1533514
vt 0.1337256 0.1624516
vt 0.1662834 0.1255307
vt 0.1534635 0.1186277
vt 0.1550659 0.1173148
vt 0.1959629 0.03859391
vt 0.2046715 0.06106967
vt 0.192212 0.05468525
vt 0.1977238 0.03317329
vt 0.1872366 0.04594123
vt 0.1743678 0.04251181
vt 0.196774 0.03577713
vt 0.1732568 0.04470212
vt 0.1771158 0.02589996
vt 0.196774 0.035777
vt 0.1771158 0.02589984
vt 0.1893758 0.01246426
vt 0.1893757 0.01246436
vt 0.2075455 0.00640779
vt 0.2044102 0.01463495
vt 0.1978665 0.0322987
vt 0.2083539 0.01957024
vt 0.2210237 0.02560977
vt -0.04488499 0.09670392
vt -0.05272555 0.1195052
vt -0.05650816 0.1182045
vt 0.1494867 -0.1406463
vt 0.1310402 -0.1252076
vt 0.1290927 -0.1274901
vt 0.0958301 0.04523037
vt 0.09228151 0.06329103
vt 0.08954889 0.06117838
vt -0.1974898 0.03329246
vt -0.2079293 0.00368255
vt -0.189795 0.01010832
vt -0.1977471 0.03196672
vt -0.1898985 0.008834178
vt -0.1778602 0.02250542
vt -0.1970512 0.03553005
vt -0.1773247 0.02573883
vt -0.1735289 0.04457267
vt -0.1964159 0.03679115
vt -0.1728039 0.04559677
vt -0.1780751 0.0643763
vt -0.1958748 0.03779227
vt -0.1773643 0.06526382
vt -0.1921193 0.05385142
vt -0.1967933 0.03573855
vt -0.1932156 0.05183823
vt -0.2057183 0.0581376
vt 0.1940693 0.04929952
vt 0.1797964 0.06140665
vt 0.1868823 0.04578555
vt -0.01762562 -0.102379
vt -0.01998525 -0.1029068
vt -0.01650174 -0.121296
vt 0.187912 0.04310434
vt 0.1810635 0.05883101
vt 0.1749943 0.03986342
vt 0.1959629 0.03859391
vt 0.192212 0.05468525
vt 0.1850923 0.05103702
vt 0.006333294 -0.01283373
vt 0.0101362 -0.01407391
vt 0.01608697 0.004174419
vt -0.03416312 -0.1142684
vt -0.02694371 -0.09757403
vt -0.03061511 -0.09598629
vt -0.1967932 0.03573861
vt -0.2200291 0.02951599
vt -0.2075071 0.023255
vt -0.2044972 -0.007339603
vt -0.2055179 0.009642266
vt -0.2074808 0.01082295
vt 0.196774 0.03577708
vt 0.2003517 0.0196774
vt 0.2075071 0.02325511
vt 0.2003517 0.01967753
vt 0.2044102 0.01463507
vt 0.2075071 0.02325523
vt 0.2044103 0.01463465
vt 0.2075456 0.006407489
vt 0.2075072 0.02325482
vt -0.1122927 -0.1601474
vt -0.1105311 -0.1615195
vt -0.09829057 -0.1467888
vt -0.01805998 0.01814657
vt -0.01293338 0.002098147
vt -0.01076617 0.002635512
vt 0.2003517 0.01967734
vt 0.196774 0.03577703
vt 0.1893758 0.0124643
vt 0.04182363 -0.1125172
vt 0.03310732 -0.09602536
vt 0.04027564 -0.113894
vt 0.04029406 0.1918644
vt 0.04286167 0.2056269
vt 0.03830811 0.1924893
vt 0.1586231 0.122341
vt 0.1677034 0.1329969
vt 0.1596645 0.1243812
vt -0.1304591 0.1524767
vt -0.1372885 0.1620795
vt -0.1404705 0.1596557
vt -0.1618892 0.1349263
vt -0.1515185 0.1254686
vt -0.1511433 0.1289022
vt 0.2044102 0.01463507
vt 0.2003517 0.01967753
vt 0.1893757 0.01246447
vt 0.05656518 0.09740154
vt 0.05417236 0.09774931
vt 0.04777991 0.07932127
o group890568432
g mesh890568432
usemtl mat14
f 4/4/1 3/3/1 2/2/1 1/1/1
f 3/8/2 6/7/2 5/6/2 2/5/2
f 6/12/3 8/11/3 7/10/3 5/9/3
f 8/16/4 10/15/4 9/14/4 7/13/4
f 10/19/5 11/18/5 9/17/5
f 13/22/6 12/21/6 11/20/6
f 15/25/7 14/24/7 12/23/7
f 15/29/8 17/28/8 16/27/8 14/26/8
f 17/33/9 19/32/9 18/31/9 16/30/9
f 19/37/10 21/36/10 20/35/10 18/34/10
f 21/41/11 23/40/11 22/39/11 20/38/11
f 23/45/12 4/44/12 1/43/12 22/42/12
f 1/56/13 2/55/13 5/54/13 7/53/13 9/52/13 11/51/13 14/50/13 16/49/13 18/48/13 20/47/13 22/46/13
f 23/68/14 21/67/14 19/66/14 17/65/14 15/64/14 12/63/14 13/62/14 10/61/14 8/60/14 6/59/14 3/58/14 4/57/14
f 11/71/15 12/70/15 14/69/15
f 10/74/16 13/73/16 11/72/16
o group547324445
g mesh547324445
usemtl mat21
f 27/78/17 26/77/17 25/76/17 24/75/17
f 32/83/18 31/82/18 30/81/18 29/80/18 28/79/18
f 25/87/19 32/86/19 28/85/19 24/84/19
f 29/92/20 30/91/20 33/90/20 26/89/20 27/88/20
f 28/96/21 29/95/21 27/94/21 24/93/21
f 26/101/22 33/100/22 31/99/22 32/98/22 25/97/22
f 33/104/23 30/103/23 31/102/23
o group146488109
g mesh146488109
usemtl mat21
f 37/108/24 36/107/24 35/106/24 34/105/24
f 41/112/25 40/111/25 39/110/25 38/109/25
f 35/116/26 41/115/26 38/114/26 34/113/26
f 39/120/27 40/119/27 36/118/27 37/117/27
f 38/124/28 39/123/28 37/122/28 34/121/28
f 36/128/29 40/127/29 41/126/29 35/125/29
o group1966194836
g mesh1966194836
usemtl mat21
f 47/134/30 46/133/30 45/132/30 44/131/30 43/130/30 42/129/30
f 53/140/31 52/139/31 51/138/31 50/137/31 49/136/31 48/135/31
f 43/144/32 53/143/32 48/142/32 42/141/32
f 51/147/33 45/146/33 46/145/33
f 48/151/34 49/150/34 47/149/34 42/148/34
f 44/155/35 52/154/35 53/153/35 43/152/35
f 49/158/36 46/157/36 47/156/36
f 49/161/37 50/160/37 46/159/37
f 46/164/38 50/163/38 51/162/38
f 44/167/39 45/166/39 52/165/39
f 45/170/40 51/169/40 52/168/40
o group300672253
g mesh300672253
usemtl mat21
f 59/176/41 58/175/41 57/174/41 56/173/41 55/172/41 54/171/41
f 65/182/42 64/181/42 63/180/42 62/179/42 61/178/42 60/177/42
f 55/186/43 65/185/43 60/184/43 54/183/43
f 62/189/44 63/188/44 57/187/44
f 60/193/45 61/192/45 59/191/45 54/190/45
f 56/197/46 64/196/46 65/195/46 55/194/46
f 61/200/47 62/199/47 59/198/47
f 62/203/48 58/202/48 59/201/48
f 57/206/49 58/205/49 62/204/49
f 56/209/50 63/208/50 64/207/50
f 56/212/51 57/211/51 63/210/51
o group111983383
g mesh111983383
usemtl mat21
f 68/215/52 67/214/52 66/213/52
f 71/218/53 70/217/53 69/216/53
f 71/221/54 72/220/54 66/219/54
f 69/224/55 70/223/55 68/222/55
f 69/227/56 68/226/56 66/225/56
f 73/230/57 70/229/57 67/228/57
f 69/233/58 72/232/58 71/231/58
f 70/236/59 71/235/59 67/234/59
f 66/239/60 72/238/60 69/237/60
f 68/242/61 73/241/61 67/240/61
f 70/245/62 73/244/62 68/243/62
f 66/248/63 67/247/63 71/246/63
o group1097910165
g mesh1097910165
usemtl mat21
f 76/251/64 75/250/64 74/249/64
f 79/254/65 78/253/65 77/252/65
f 79/257/66 80/256/66 74/255/66
f 77/260/67 78/259/67 76/258/67
f 77/263/68 76/262/68 74/261/68
f 81/266/69 78/265/69 75/264/69
f 77/269/70 80/268/70 79/267/70
f 78/272/71 79/271/71 75/270/71
f 74/275/72 80/274/72 77/273/72
f 76/278/73 81/277/73 75/276/73
f 78/281/74 81/280/74 76/279/74
f 74/284/75 75/283/75 79/282/75
o group6956910
g mesh6956910
usemtl mat21
f 84/287/76 83/286/76 82/285/76
f 83/291/77 87/290/77 86/289/77 85/288/77
f 82/294/78 83/293/78 85/292/78
f 86/297/79 87/296/79 84/295/79
f 85/300/80 86/299/80 84/298/80
f 82/303/81 85/302/81 84/301/81
f 84/306/82 87/305/82 83/304/82
o group1335509055
g mesh1335509055
usemtl mat23
f 90/309/83 89/308/83 88/307/83
f 93/312/84 92/311/84 91/310/84
f 96/315/85 95/314/85 94/313/85
f 95/318/86 97/317/86 94/316/86
f 99/321/87 98/320/87 97/319/87
f 99/324/88 100/323/88 98/322/88
f 102/327/89 90/326/89 101/325/89
f 100/330/90 103/329/90 88/328/90
f 89/333/91 105/332/91 104/331/91
f 93/336/92 105/335/92 89/334/92
f 92/339/93 89/338/93 90/337/93
f 95/342/94 106/341/94 90/340/94
f 107/345/95 95/344/95 90/343/95
f 99/348/96 107/347/96 90/346/96
f 109/351/97 108/350/97 99/349/97
f 102/354/98 110/353/98 90/352/98
f 89/357/99 104/356/99 88/355/99
f 90/360/100 88/359/100 101/358/100
f 110/363/101 111/362/101 100/361/101
f 98/366/102 100/365/102 88/364/102
f 97/369/103 98/368/103 88/367/103
f 94/372/104 97/371/104 88/370/104
f 91/375/105 94/374/105 88/373/105
f 105/378/106 91/377/106 88/376/106
f 104/381/107 105/380/107 88/379/107
f 106/384/108 96/383/108 92/382/108
f 92/387/109 96/386/109 91/385/109
f 95/390/110 96/389/110 106/388/110
f 106/393/111 92/392/111 90/391/111
f 95/396/112 107/395/112 97/394/112
f 97/399/113 107/398/113 99/397/113
f 103/402/114 101/401/114 88/400/114
f 111/405/115 103/404/115 100/403/115
f 110/408/116 112/407/116 90/406/116
f 110/411/117 109/410/117 112/409/117
f 110/414/118 108/413/118 109/412/118
f 99/417/119 108/416/119 100/415/119
f 100/420/120 108/419/120 110/418/120
f 99/423/121 90/422/121 112/421/121
f 93/426/122 91/425/122 105/424/122
f 93/429/123 89/428/123 92/427/123
f 111/432/124 101/431/124 103/430/124
f 102/435/125 101/434/125 111/433/125
f 111/438/126 110/437/126 102/436/126
f 99/441/127 112/440/127 109/439/127
f 94/444/128 91/443/128 96/442/128
